<?xml version="1.0" encoding="utf-8"?>
<!-- Generator: Adobe Illustrator 21.0.2, SVG Export Plug-In . SVG Version: 6.00 Build 0)  -->
<svg version="1.1" id="Layer_1" xmlns="http://www.w3.org/2000/svg" xmlns:xlink="http://www.w3.org/1999/xlink" x="0px" y="0px"
	 width="10px" height="10px" viewBox="0 0 10 10" style="enable-background:new 0 0 10 10;" xml:space="preserve">
<style type="text/css">
	.st0{fill:#FFFFFF;}
</style>
<g>
	<path class="st0" d="M9.9,3.8c0-0.1-0.2-0.2-0.3-0.2h-3L5.3,0.3c0-0.1-0.2-0.2-0.3-0.2c-0.1,0-0.3,0.1-0.3,0.2L3.5,3.6h-3
		c-0.1,0-0.3,0.1-0.3,0.2c0,0.1,0,0.3,0.1,0.4l2.4,2.2l-0.8,3c0,0.1,0,0.3,0.1,0.4c0.1,0,0.1,0.1,0.2,0.1c0.1,0,0.1,0,0.2-0.1L5,8.1
		l2.6,1.8c0.1,0.1,0.3,0.1,0.4,0c0.1-0.1,0.2-0.2,0.1-0.4l-0.8-3l2.4-2.2C9.9,4.1,9.9,3.9,9.9,3.8z"/>
	<path class="st0" d="M7.8,10L7.8,10c-0.1,0-0.2,0-0.2-0.1L5,8.2L2.4,9.9C2.3,10,2.1,10,1.9,9.9C1.8,9.8,1.7,9.6,1.8,9.4l0.8-3
		L0.1,4.3C0,4.1,0,3.9,0,3.8c0.1-0.2,0.2-0.3,0.4-0.3h3l1.2-3.2C4.7,0.1,4.8,0,5,0c0.2,0,0.3,0.1,0.4,0.3l1.2,3.2h3
		c0.2,0,0.3,0.1,0.4,0.3c0.1,0.2,0,0.4-0.1,0.5L7.5,6.5l0.8,3c0,0.2,0,0.4-0.2,0.5C8,10,7.9,10,7.8,10z M5,8C5,8,5,8,5,8l2.7,1.8
		c0,0,0.1,0,0.1,0l0,0c0.1,0,0.1,0,0.1,0c0.1-0.1,0.1-0.2,0.1-0.3l-0.8-3c0,0,0-0.1,0-0.1l2.4-2.2C9.8,4,9.8,3.9,9.8,3.8
		c0-0.1-0.1-0.2-0.2-0.2h-3c0,0-0.1,0-0.1-0.1L5.2,0.4c0-0.1-0.1-0.2-0.2-0.2c-0.1,0-0.2,0.1-0.2,0.2L3.6,3.6c0,0,0,0.1-0.1,0.1h-3
		c-0.1,0-0.2,0.1-0.2,0.2c0,0.1,0,0.2,0.1,0.3l2.4,2.2c0,0,0,0.1,0,0.1l-0.8,3c0,0.1,0,0.2,0.1,0.3c0.1,0.1,0.2,0.1,0.3,0L5,8
		C5,8,5,8,5,8z"/>
</g>
</svg>
